<svg width="299" height="80" viewBox="0 0 299 80" fill="none" xmlns="http://www.w3.org/2000/svg">
<g clip-path="url(#clip0_731_794)">
<path d="M84.0453 37.1591L92.1057 42.5044V44.4558H81.5423V51.8799H97.7055C99.8691 51.8799 101.396 50.3527 101.396 48.1891V41.4438C101.396 39.0681 100.93 37.753 98.8934 36.3955L90.833 31.0077V29.6502H99.9539L101.396 25.8321V22.1837H85.2755C83.0695 22.1837 81.5423 23.7109 81.5423 25.8745V32.1107C81.5423 34.4864 82.009 35.7591 84.0453 37.1591ZM116.915 29.6502V44.4558H113.224V29.6502H116.915ZM122.473 51.8799C124.679 51.8799 126.206 50.3527 126.206 48.1891V25.8745C126.206 23.7109 124.679 22.1837 122.473 22.1837H107.667C105.461 22.1837 103.934 23.7109 103.934 25.8745V48.1891C103.934 50.3527 105.461 51.8799 107.667 51.8799H122.473ZM138.91 40.3832H142.601V44.4558H138.91V40.3832ZM142.601 32.9592H138.91V29.6502H142.601V32.9592ZM148.159 51.8799C150.365 51.8799 151.892 50.3527 151.892 48.1891V40.6802C151.892 38.4742 150.11 37.0742 148.074 37.0742V36.2682C150.11 36.2682 151.892 34.8682 151.892 32.7046V25.8745C151.892 23.7109 150.365 22.1837 148.159 22.1837H129.62V51.8799H148.159ZM174.704 51.8799V44.4558H164.098V40.3832H173.219V32.9592H164.098V29.6502H173.219L174.704 25.8745V22.1837H154.85V51.8799H174.704ZM190.244 29.6502V35.2076H186.553V29.6502H190.244ZM177.263 22.1837V51.8799H186.553V42.6316H188.42L190.923 51.8799H200.002V48.1891L197.074 40.8923C198.474 40.5105 199.535 38.9408 199.535 37.5409V25.8745C199.535 23.7109 198.008 22.1837 195.844 22.1837H177.263ZM212.207 38.4742L213.055 29.6502H214.073L214.922 38.4742H212.207ZM205.843 22.1837L201.686 48.1891V51.8799H210.934L211.528 45.8982H215.601L216.152 51.8799H225.443V48.1891L221.285 22.1837H205.843ZM242.141 35.9288L237.814 22.1837H227.972V51.8799H236.499V48.1891L235.311 38.1772H236.032L240.402 51.8799H250.244V22.1837H241.674V25.8745L242.905 35.9288H242.141ZM263.33 38.4742L264.178 29.6502H265.197L266.045 38.4742H263.33ZM256.966 22.1837L252.809 48.1891V51.8799H262.057L262.651 45.8982H266.724L267.275 51.8799H276.566V48.1891L272.408 22.1837H256.966Z" fill="white"/>
<path d="M54.3945 6.28042C48.6311 2.47729 41.9399 0.31741 35.0406 0.0331228C28.1414 -0.251164 21.2951 1.3509 15.2384 4.66698L16.0283 5.45685L26.754 16.173L35.6232 25.0421L43.2882 17.3771C48.7305 19.9824 52.9166 24.6408 54.9275 30.3296C56.9385 36.0184 56.6099 42.2727 54.014 47.7194L43.2882 36.9936L23.674 17.3771L22.7566 16.4596L12.9434 6.66091L12.563 6.28042C10.5943 7.58944 8.75135 9.07843 7.05799 10.7282C6.92554 10.8535 6.7955 10.969 6.66787 11.1063C3.33964 14.4336 1.12458 18.7107 0.327615 23.3489C-0.469351 27.9871 0.190963 32.7583 2.21766 37.0057L12.0259 27.1974L12.9434 28.1125L22.7517 37.9232L32.5624 47.7315L33.4799 48.649L38.8452 54.0119L43.2906 58.4597C43.033 58.5825 42.7753 58.7005 42.5152 58.8137C38.3288 60.6267 33.6937 61.1383 29.2126 60.2819C24.7315 59.4256 20.6117 57.2409 17.3888 54.0119L12.9434 49.5665L12.0259 48.649L6.66305 54.0119C3.33285 57.338 1.11679 61.6155 0.32056 66.2544C-0.475666 70.8933 0.187176 75.665 2.21766 79.9112L12.5726 69.5563C20.9648 75.1035 31.2169 77.0898 41.0735 75.078C50.9301 73.0663 59.5839 67.2215 65.1311 58.8293C70.6783 50.4371 72.6646 40.1851 70.6528 30.3284C68.6411 20.4718 62.7963 11.818 54.4041 6.27079" fill="url(#paint0_linear_731_794)"/>
</g>
<defs>
<linearGradient id="paint0_linear_731_794" x1="35.0717" y1="5.20399" x2="35.994" y2="76.6001" gradientUnits="userSpaceOnUse">
<stop stop-color="#FA5901"/>
<stop offset="1" stop-color="#EB005C"/>
</linearGradient>
<clipPath id="clip0_731_794">
<rect width="299" height="79.9112" fill="white"/>
</clipPath>
</defs>
</svg>
